<svg width="88" height="50" viewBox="0 0 88 50" fill="none" xmlns="http://www.w3.org/2000/svg">
<path d="M75 0C81.9036 0 87.5 5.59644 87.5 12.5V50H75V0Z" fill="white"/>
<path d="M37.5 0H50V50C43.0964 50 37.5 44.4036 37.5 37.5V0Z" fill="white"/>
<path d="M56.25 0H68.75V50H56.25V0Z" fill="white"/>
<path d="M18.75 0C25.6536 0 31.25 5.59644 31.25 12.5V18.75C31.25 25.6536 25.6536 31.25 18.75 31.25V0Z" fill="white"/>
<path d="M0 12.5C0 5.59644 5.59644 0 12.5 0V37.5C12.5 44.4036 6.90356 50 0 50V12.5Z" fill="white"/>
</svg>